<?xml version="1.0" standalone="no"?>
<!DOCTYPE svg PUBLIC "-//W3C//DTD SVG 20010904//EN"
 "http://www.w3.org/TR/2001/REC-SVG-20010904/DTD/svg10.dtd">
<svg version="1.0" xmlns="http://www.w3.org/2000/svg"
 width="256.000000pt" height="256.000000pt" viewBox="0 0 256.000000 256.000000"
 preserveAspectRatio="xMidYMid meet">
<metadata>
Created by potrace 1.11, written by Peter Selinger 2001-2013
</metadata>
<g transform="translate(0.000000,256.000000) scale(0.100000,-0.100000)"
fill="#000000" stroke="none">
<path d="M2008 2555 c-2 -1 -29 -5 -61 -9 -162 -17 -337 -66 -472 -133 -96
-47 -110 -64 -106 -124 0 -9 89 -104 196 -212 107 -107 195 -199 195 -203 0
-5 -26 -34 -57 -66 l-57 -58 -201 200 c-186 184 -204 200 -237 200 -58 0 -94
-60 -63 -106 9 -14 99 -108 201 -210 101 -101 184 -187 184 -192 0 -4 -26 -33
-58 -65 l-58 -57 -129 131 c-72 72 -143 137 -159 144 -69 30 -131 -41 -90
-103 9 -14 72 -80 140 -148 68 -68 124 -127 124 -132 0 -4 -26 -34 -59 -66
l-58 -57 -69 69 c-84 84 -113 103 -144 97 -33 -6 -60 -40 -60 -75 0 -21 19
-48 80 -111 44 -45 80 -85 80 -89 0 -3 -27 -32 -60 -65 l-59 -58 -38 25 c-141
93 -289 135 -446 125 -149 -10 -316 -81 -415 -176 -45 -43 -51 -54 -48 -81 2
-18 11 -39 20 -48 9 -9 159 -64 333 -122 l317 -106 106 -319 c111 -332 123
-355 176 -355 59 0 207 216 230 335 2 11 7 31 10 45 13 53 12 207 -1 271 -17
80 -57 176 -104 247 l-34 53 62 63 63 63 85 -83 c87 -86 110 -97 154 -73 28
15 41 53 28 86 -5 14 -44 60 -85 102 l-75 75 58 58 c31 32 61 58 65 58 5 0 63
-55 131 -122 144 -144 148 -148 180 -153 28 -6 72 24 80 54 9 34 -21 74 -154
205 l-130 129 58 59 c31 32 61 58 65 58 5 0 94 -86 199 -190 104 -105 201
-195 215 -200 30 -12 69 2 83 29 29 52 20 65 -189 275 l-200 202 62 61 61 61
200 -199 c110 -109 204 -200 208 -200 5 -1 15 -2 22 -3 6 -1 24 4 39 11 66 32
170 312 203 543 4 25 8 131 9 235 3 205 -10 335 -36 361 -26 26 -101 36 -310
39 -108 2 -198 2 -200 0z m57 -300 c28 -27 30 -42 14 -79 -33 -71 -139 -45
-139 34 0 29 44 70 75 70 14 0 37 -11 50 -25z"/>
</g>
</svg>
